<svg width="24" height="24" viewBox="0 0 24 24" fill="none" xmlns="http://www.w3.org/2000/svg">
<path d="M9.59585 0.189196C6.40769 0.918861 3.79444 2.73229 1.99652 5.47927C-1.14983 10.3187 -0.52265 16.8105 3.4913 20.9525C4.69339 22.1972 6.52267 23.399 7.90246 23.8604C8.41466 24.0321 8.47738 24.0321 8.70735 23.8711C8.95822 23.6994 8.96867 23.6565 8.96867 22.4225V21.1563L8.04881 21.21C6.97215 21.2636 6.13591 21.0705 5.63416 20.6305C5.45646 20.4803 5.11151 19.9653 4.8711 19.4931C4.47388 18.6991 4.1812 18.3342 3.36586 17.5938C3.09409 17.347 3.08363 17.3363 3.27179 17.1968C3.72127 16.8535 4.63068 17.1861 5.20559 17.8943C6.20908 19.1497 6.59584 19.4824 7.17075 19.6112C7.68295 19.7185 8.15334 19.6755 8.86414 19.4609C8.95822 19.4287 9.08365 19.2034 9.14637 18.9459C9.20909 18.6991 9.37634 18.3235 9.51223 18.1196L9.7631 17.7441L8.9164 17.5724C7.1394 17.1968 6.04183 16.5423 5.32057 15.4263C4.65158 14.3962 4.43207 13.5056 4.42162 11.8424C4.42162 10.2757 4.58886 9.63192 5.2474 8.75203C5.54009 8.36573 5.57145 8.2477 5.48782 8.02236C5.33103 7.63607 5.37284 6.00505 5.54009 5.51146C5.67598 5.14662 5.74915 5.08224 6.03138 5.05005C6.50176 4.9964 7.37981 5.30758 8.26832 5.82264L9.03139 6.27331L9.70038 6.11236C10.6516 5.88702 13.5053 5.89775 14.3624 6.11236L15.0105 6.28404L15.6168 5.90848C16.4217 5.41488 17.4461 5.02859 17.9582 5.02859C18.3659 5.02859 18.3659 5.03932 18.5332 5.58657C18.7109 6.21966 18.7422 7.36781 18.5854 7.91506C18.5018 8.23697 18.5227 8.33354 18.7527 8.64472C19.8921 10.1899 20.0175 12.7545 19.0558 14.8576C18.4077 16.2418 17.0384 17.2076 15.1987 17.5617L14.3206 17.7333L14.6446 18.3235L14.9791 18.9244L15.0105 21.3173L15.0523 23.7102L15.3136 23.8818C15.5541 24.0428 15.6063 24.0428 16.1081 23.8604C16.9443 23.5707 18.3764 22.7766 19.1603 22.165C23.8224 18.581 25.3276 12.1536 22.7457 6.80983C21.23 3.66583 18.3659 1.2515 15.0837 0.350151C13.6516 -0.0361423 10.9547 -0.121984 9.59585 0.189196Z" fill="black"/>
</svg>
